<svg width="32" height="32" viewBox="0 0 32 32" fill="none" xmlns="http://www.w3.org/2000/svg">
  <!-- Background circle -->
  <circle cx="16" cy="16" r="16" fill="#ea580c"/>
  
  <!-- Stylized 'S' -->
  <path d="M12 10C12 8.89543 12.8954 8 14 8H18C19.1046 8 20 8.89543 20 10C20 11.1046 19.1046 12 18 12H16C13.7909 12 12 13.7909 12 16C12 18.2091 13.7909 20 16 20H18C19.1046 20 20 20.8954 20 22C20 23.1046 19.1046 24 18 24H14C12.8954 24 12 23.1046 12 22" 
        stroke="white" 
        stroke-width="2" 
        stroke-linecap="round" 
        fill="none"/>
  
  <!-- Decorative elements -->
  <circle cx="22" cy="10" r="1.5" fill="white" opacity="0.7"/>
  <circle cx="10" cy="22" r="1.5" fill="white" opacity="0.7"/>
</svg>