<svg width="32" height="32" viewBox="0 0 32 32" fill="none" xmlns="http://www.w3.org/2000/svg">
  <rect width="32" height="32" rx="6" fill="#ea580c"/>
  <path d="M8.5 12.5C8.5 11.1193 9.61929 10 11 10H14C16.7614 10 19 12.2386 19 15C19 16.3807 18.3807 17.6193 17.4142 18.4142C18.3807 19.2091 19 20.4477 19 21.8284C19 24.5898 16.7614 26.8284 14 26.8284H11C9.61929 26.8284 8.5 25.7091 8.5 24.3284V12.5Z" fill="white"/>
  <path d="M12.5 13.5V16.5H14C15.1046 16.5 16 15.6046 16 14.5C16 13.3954 15.1046 12.5 14 12.5H12.5V13.5Z" fill="#ea580c"/>
  <path d="M12.5 19.5V23.8284H14C15.1046 23.8284 16 22.933 16 21.8284C16 20.7238 15.1046 19.8284 14 19.8284H12.5V19.5Z" fill="#ea580c"/>
</svg>